<svg width="74" height="74" viewBox="0 0 74 74" fill="none" xmlns="http://www.w3.org/2000/svg">
<path d="M37 0C16.5654 0 0 16.5654 0 37C0 57.4346 16.5654 74 37 74C57.4346 74 74 57.4346 74 37C74 16.5654 57.4346 0 37 0ZM54.1501 25.163C53.5933 31.0136 51.184 45.2113 49.9578 51.7642C49.4392 54.5368 48.4178 55.4666 47.4292 55.5574C45.2808 55.7553 43.649 54.1376 41.5679 52.7733C38.3114 50.6387 36.4717 49.3098 33.3106 47.2268C29.6576 44.8195 32.0257 43.4969 34.1076 41.3336C34.6524 40.7677 44.1195 32.1567 44.3027 31.3756C44.3256 31.2778 44.3475 30.9131 44.1306 30.7215C43.9136 30.5299 43.595 30.5948 43.3644 30.6469C43.0379 30.7211 37.8356 34.1596 27.7576 40.9624C26.2811 41.9764 24.9436 42.4704 23.7452 42.4445C22.4241 42.416 19.8829 41.6977 17.9936 41.0834C15.6765 40.3303 13.8349 39.9321 13.9953 38.6529C14.0788 37.9865 14.9963 37.3052 16.7479 36.609C27.5342 31.9096 34.7267 28.8113 38.3254 27.3142C48.6007 23.0403 50.7358 22.2979 52.1275 22.2731C52.4336 22.268 53.118 22.3438 53.5612 22.7035C53.8561 22.9598 54.044 23.3173 54.0879 23.7055C54.163 24.1875 54.1839 24.6764 54.1501 25.163Z" fill="white"/>
</svg>
