<svg width="75" height="74" viewBox="0 0 75 74" fill="none" xmlns="http://www.w3.org/2000/svg">
<path d="M5.27188 5.20159C0 10.4032 0 18.776 0 35.52V38.48C0 55.224 0 63.5969 5.27188 68.7984C10.5437 74 19.0297 74 36 74H39C55.9703 74 64.4563 74 69.7281 68.7984C75 63.5969 75 55.224 75 38.48V35.52C75 18.776 75 10.4032 69.7281 5.20159C64.4563 0 55.9703 0 39 0H36C19.0297 0 10.5437 0 5.27188 5.20159ZM12.6562 22.5084H21.2188C21.5001 36.63 27.8124 42.6116 32.8125 43.845V22.5084H40.875V34.6875C45.8124 34.1634 51 28.6134 52.7499 22.5084H60.8124C60.1528 25.6745 58.8382 28.6722 56.9508 31.3144C55.0636 33.9564 52.6441 36.1858 49.8437 37.8634C52.9704 39.3949 55.7322 41.5639 57.9462 44.2267C60.1602 46.8897 61.7762 49.986 62.6874 53.3109H53.8125C52.9947 50.4227 51.3305 47.8374 49.0287 45.879C46.7272 43.9208 43.8906 42.6769 40.875 42.3034V53.3109H39.9062C22.8126 53.3109 13.0625 41.7484 12.6562 22.5084Z" fill="white"/>
</svg>
