<svg width="109" height="73" viewBox="0 0 109 73" fill="none" xmlns="http://www.w3.org/2000/svg">
<path d="M105.832 11.5079C104.6 7.02735 100.969 3.49859 96.3594 2.30106C88.004 0.125 54.5001 0.125 54.5001 0.125C54.5001 0.125 20.9964 0.125 12.6409 2.30106C8.03123 3.49878 4.40071 7.02735 3.1685 11.5079C0.929688 19.6292 0.929688 36.5735 0.929688 36.5735C0.929688 36.5735 0.929688 53.5178 3.1685 61.6391C4.40071 66.1197 8.03123 69.5014 12.6409 70.6989C20.9964 72.875 54.5001 72.875 54.5001 72.875C54.5001 72.875 88.0038 72.875 96.3594 70.6989C100.969 69.5014 104.6 66.1197 105.832 61.6391C108.071 53.5178 108.071 36.5735 108.071 36.5735C108.071 36.5735 108.071 19.6292 105.832 11.5079ZM43.5425 51.9577V21.1893L71.5451 36.5739L43.5425 51.9577Z" fill="white"/>
</svg>
